<?xml version="1.0" encoding="UTF-8" standalone="no"?>
<svg
   xmlns:dc="http://purl.org/dc/elements/1.1/"
   xmlns:cc="http://creativecommons.org/ns#"
   xmlns:rdf="http://www.w3.org/1999/02/22-rdf-syntax-ns#"
   xmlns:svg="http://www.w3.org/2000/svg"
   xmlns="http://www.w3.org/2000/svg"
   xmlns:sodipodi="http://sodipodi.sourceforge.net/DTD/sodipodi-0.dtd"
   xmlns:inkscape="http://www.inkscape.org/namespaces/inkscape"
   version="1.1"
   width="24"
   height="24"
   viewBox="0 0 24 24"
   id="svg4"
   sodipodi:docname="twitter.svg"
   inkscape:version="0.92.4 (5da689c313, 2019-01-14)"
   inkscape:export-filename="C:\Users\evan\IdeaProjects\minecraftbetter\launcher\src\main\resources\minecraftbetter\images\home\twitter.png"
   inkscape:export-xdpi="256"
   inkscape:export-ydpi="256">
  <metadata
     id="metadata10">
    <rdf:RDF>
      <cc:Work
         rdf:about="">
        <dc:format>image/svg+xml</dc:format>
        <dc:type
           rdf:resource="http://purl.org/dc/dcmitype/StillImage" />
        <dc:title />
      </cc:Work>
    </rdf:RDF>
  </metadata>
  <defs
     id="defs8" />
  <sodipodi:namedview
     pagecolor="#ffffff"
     bordercolor="#666666"
     borderopacity="1"
     objecttolerance="10"
     gridtolerance="10"
     guidetolerance="10"
     inkscape:pageopacity="0"
     inkscape:pageshadow="2"
     inkscape:window-width="1920"
     inkscape:window-height="1017"
     id="namedview6"
     showgrid="false"
     inkscape:zoom="9.8333333"
     inkscape:cx="-25.118644"
     inkscape:cy="12"
     inkscape:window-x="-8"
     inkscape:window-y="-8"
     inkscape:window-maximized="1"
     inkscape:current-layer="svg4" />
  <path
     d="M 22.46,5.5 C 21.69,5.85 20.86,6.08 20,6.19 20.88,5.66 21.56,4.82 21.88,3.81 21.05,4.31 20.13,4.66 19.16,4.86 18.37,4 17.26,3.5 16,3.5 c -2.35,0 -4.27,1.92 -4.27,4.29 0,0.34 0.04,0.67 0.11,0.98 C 8.28,8.59 5.11,6.88 3,4.29 2.63,4.92 2.42,5.66 2.42,6.44 2.42,7.93 3.17,9.25 4.33,10 3.62,10 2.96,9.8 2.38,9.5 c 0,0 0,0 0,0.03 0,2.08 1.48,3.82 3.44,4.21 -0.36,0.1 -0.74,0.15 -1.13,0.15 -0.27,0 -0.54,-0.03 -0.8,-0.08 0.54,1.69 2.11,2.95 4,2.98 -1.46,1.16 -3.31,1.84 -5.33,1.84 -0.34,0 -0.68,-0.02 -1.02,-0.06 1.9,1.22 4.16,1.93 6.58,1.93 7.88,0 12.21,-6.54 12.21,-12.21 0,-0.19 0,-0.37 -0.01,-0.56 0.84,-0.6 1.56,-1.36 2.14,-2.23 z"
     id="path2"
     inkscape:connector-curvature="0"
     style="fill:#ffffff" />
</svg>
