<?xml version="1.0" encoding="UTF-8" standalone="no"?>
<!-- Created with Inkscape (http://www.inkscape.org/) -->

<svg
   xmlns:dc="http://purl.org/dc/elements/1.1/"
   xmlns:cc="http://creativecommons.org/ns#"
   xmlns:rdf="http://www.w3.org/1999/02/22-rdf-syntax-ns#"
   xmlns:svg="http://www.w3.org/2000/svg"
   xmlns="http://www.w3.org/2000/svg"
   xmlns:sodipodi="http://sodipodi.sourceforge.net/DTD/sodipodi-0.dtd"
   xmlns:inkscape="http://www.inkscape.org/namespaces/inkscape"
   version="1.1"
   id="svg10"
   width="2016"
   height="2016"
   viewBox="0 0 2016 2016"
   sodipodi:docname="favicon original.svg"
   inkscape:version="0.92.4 (5da689c313, 2019-01-14)">
  <metadata
     id="metadata16">
    <rdf:RDF>
      <cc:Work
         rdf:about="">
        <dc:format>image/svg+xml</dc:format>
        <dc:type
           rdf:resource="http://purl.org/dc/dcmitype/StillImage" />
        <dc:title></dc:title>
      </cc:Work>
    </rdf:RDF>
  </metadata>
  <defs
     id="defs14" />
  <sodipodi:namedview
     pagecolor="#ffffff"
     bordercolor="#666666"
     borderopacity="1"
     objecttolerance="10"
     gridtolerance="10"
     guidetolerance="10"
     inkscape:pageopacity="0"
     inkscape:pageshadow="2"
     inkscape:window-width="1920"
     inkscape:window-height="1017"
     id="namedview12"
     showgrid="false"
     inkscape:zoom="0.2974338"
     inkscape:cx="1532.9437"
     inkscape:cy="913.75418"
     inkscape:window-x="-8"
     inkscape:window-y="-8"
     inkscape:window-maximized="1"
     inkscape:current-layer="g20" />
  <g
     id="g20">
    <path
       style="fill:#f6242e;fill-opacity:1;stroke-width:1.33333337"
       d="m 998.44453,2014.0144 c -2.68884,-0.9888 -195.28884,-111.6743 -428,-245.9679 -458.29468,-264.4737 -432.69042,-249.0544 -437.62908,-263.5485 -1.96115,-5.7557 -2.14623,-49.4505 -2.1195,-500.4022 0.0283,-477.51887 0.11186,-494.27473 2.49077,-499.42913 1.35383,-2.93334 3.89065,-6.64232 5.63739,-8.24219 C 140.57085,494.82461 184,469.26519 235.33333,439.62575 853.03149,82.972028 986.80155,5.8715024 991.54249,3.7723995 c 7.72895,-3.42206911 19.68001,-4.33611479 27.79081,-2.1255176 3.9787,1.0843832 38.6535,20.2885821 86,47.6300251 43.6334,25.197174 234.1334,135.187143 423.3334,244.422173 189.2,109.23501 345.6636,199.79031 347.6968,201.23397 2.0333,1.44367 5.0333,5.12432 6.6666,8.17923 l 2.9699,5.55439 0.3404,493.30103 c 0.3784,548.3627 1.1905,501.0072 -8.8075,513.5842 -4.6302,5.8244 -15.1081,12.2065 -108.3294,65.984 -56.7619,32.7448 -248.1035,143.1558 -425.2035,245.358 -177.1,102.202 -324.1426,186.5609 -326.7613,187.464 -6.0189,2.0758 -12.5391,1.9566 -18.79417,-0.3435 z m 8.40587,-588.3477 c 0.1011,-200.75 0.5511,-377.2083 1,-392.1295 l 0.8163,-27.1295 178.6666,-103.28438 c 294.9818,-170.52432 487.614,-278.87799 494.4276,-283.04851 3.5352,-2.16385 7.8264,-2.49944 7.2246,-3.05719 -1.3919,-1.28985 -550.1538,-322.3971 -654.4575,-382.19403 l -26.1386,-14.9852 -22.52805,12.92509 C 942.3388,257.73384 595.22096,457.99977 462,534.99971 l -134.66667,77.83553 -0.30644,316.58239 c -0.16854,174.12027 0.13147,351.33607 0.66667,393.81287 l 0.97311,77.2306 54,31.4985 c 29.7,17.3243 127.5,73.8904 217.33333,125.7024 89.83333,51.812 217.33333,125.3799 283.33333,163.484 66,38.1041 120.74997,69.3343 121.66667,69.4004 1.3291,0.096 1.7039,-73.7955 1.8504,-364.8797 z"
       id="path32"
       inkscape:connector-curvature="0"
       sodipodi:nodetypes="cscscssscsscccscssccsccsscccsscssccsscs" />
    <path
       style="fill:#1a1a1a;stroke-width:1.33333337"
       d="m 1008.6667,1006.4077 c 680.3968,-390.4077 0,0 680.3968,-390.4077 1.8685,784.7999 0,0 1.8685,784.7999 -685.8605,389.8844 0,0 -685.8605,389.8844 z"
       id="path26"
       inkscape:connector-curvature="0"
       sodipodi:nodetypes="ccccc" />
    <path
       style="fill:#e6e6e6;stroke-width:1.33333337"
       d="m 327.33333,612.83524 c 681.33337,393.57246 0,0 681.33337,393.57246 -3.5952,784.2766 0,0 -3.5952,784.2766 -676.40483,-390.2232 0,0 -676.40483,-390.2232 -1.33334,-787.62586 0,0 -1.33334,-787.62586 z"
       id="path26-2"
       inkscape:connector-curvature="0"
       sodipodi:nodetypes="ccccc" />
  </g>
</svg>
